<?xml version="1.0" encoding="UTF-8" standalone="no"?>
<!DOCTYPE svg PUBLIC "-//W3C//DTD SVG 1.1//EN"
 "http://www.w3.org/Graphics/SVG/1.1/DTD/svg11.dtd">
<!-- Generated by graphviz version 7.0.6 (20230106.0513)
 -->
<!-- Title: dependency&#45;cruiser output Pages: 1 -->
<svg width="373pt" height="278pt"
 viewBox="0.00 0.00 373.00 278.00" xmlns="http://www.w3.org/2000/svg" xmlns:xlink="http://www.w3.org/1999/xlink">
<g id="graph0" class="graph" transform="scale(1 1) rotate(0) translate(4 274)">
<title>dependency&#45;cruiser output</title>
<polygon fill="white" stroke="none" points="-4,4 -4,-274 369,-274 369,4 -4,4"/>
<g id="clust1" class="cluster">
<title>cluster_src</title>
<path fill="#ffffff" stroke="black" stroke-width="2" d="M20,-26C20,-26 345,-26 345,-26 351,-26 357,-32 357,-38 357,-38 357,-250 357,-250 357,-256 351,-262 345,-262 345,-262 20,-262 20,-262 14,-262 8,-256 8,-250 8,-250 8,-38 8,-38 8,-32 14,-26 20,-26"/>
<text text-anchor="middle" x="182.5" y="-250.8" font-family="Helvetica,sans-Serif" font-weight="bold" font-size="9.00">src</text>
</g>
<g id="clust2" class="cluster">
<title>cluster_src/components</title>
<path fill="#ffffff" stroke="black" stroke-width="2" d="M178,-34C178,-34 337,-34 337,-34 343,-34 349,-40 349,-46 349,-46 349,-134 349,-134 349,-140 343,-146 337,-146 337,-146 178,-146 178,-146 172,-146 166,-140 166,-134 166,-134 166,-46 166,-46 166,-40 172,-34 178,-34"/>
<text text-anchor="middle" x="257.5" y="-134.8" font-family="Helvetica,sans-Serif" font-weight="bold" font-size="9.00">components</text>
</g>
<g id="clust3" class="cluster">
<title>cluster_src/components/ProductList</title>
<path fill="#ffffff" stroke="black" stroke-width="2" d="M186,-68C186,-68 329,-68 329,-68 335,-68 341,-74 341,-80 341,-80 341,-108 341,-108 341,-114 335,-120 329,-120 329,-120 186,-120 186,-120 180,-120 174,-114 174,-108 174,-108 174,-80 174,-80 174,-74 180,-68 186,-68"/>
<text text-anchor="middle" x="257.5" y="-108.8" font-family="Helvetica,sans-Serif" font-weight="bold" font-size="9.00">ProductList</text>
</g>
<g id="clust4" class="cluster">
<title>cluster_src/hooks</title>
<path fill="#ffffff" stroke="black" stroke-width="2" d="M189,-154C189,-154 251,-154 251,-154 257,-154 263,-160 263,-166 263,-166 263,-224 263,-224 263,-230 257,-236 251,-236 251,-236 189,-236 189,-236 183,-236 177,-230 177,-224 177,-224 177,-166 177,-166 177,-160 183,-154 189,-154"/>
<text text-anchor="middle" x="220" y="-224.8" font-family="Helvetica,sans-Serif" font-weight="bold" font-size="9.00">hooks</text>
</g>
<g id="clust5" class="cluster">
<title>cluster_src/tests</title>
<path fill="#ffffff" stroke="black" stroke-width="2" d="M28,-60C28,-60 83,-60 83,-60 89,-60 95,-66 95,-72 95,-72 95,-100 95,-100 95,-106 89,-112 83,-112 83,-112 28,-112 28,-112 22,-112 16,-106 16,-100 16,-100 16,-72 16,-72 16,-66 22,-60 28,-60"/>
<text text-anchor="middle" x="55.5" y="-100.8" font-family="Helvetica,sans-Serif" font-weight="bold" font-size="9.00">tests</text>
</g>
<!-- db.json -->
<g id="node1" class="node">
<title>db.json</title>
<g id="a_node1"><a xlink:href="db.json" xlink:title="db.json">
<path fill="#ffee44" stroke="black" d="M151.5,-18C151.5,-18 109.5,-18 109.5,-18 106.5,-18 103.5,-15 103.5,-12 103.5,-12 103.5,-6 103.5,-6 103.5,-3 106.5,0 109.5,0 109.5,0 151.5,0 151.5,0 154.5,0 157.5,-3 157.5,-6 157.5,-6 157.5,-12 157.5,-12 157.5,-15 154.5,-18 151.5,-18"/>
<text text-anchor="middle" x="130.5" y="-6.8" font-family="Helvetica,sans-Serif" font-size="9.00">db.json</text>
</a>
</g>
</g>
<!-- src/App.jsx -->
<g id="node2" class="node">
<title>src/App.jsx</title>
<g id="a_node2"><a xlink:href="src/App.jsx" xlink:title="App.jsx">
<path fill="#ffff77" stroke="black" d="M151.5,-101C151.5,-101 109.5,-101 109.5,-101 106.5,-101 103.5,-98 103.5,-95 103.5,-95 103.5,-89 103.5,-89 103.5,-86 106.5,-83 109.5,-83 109.5,-83 151.5,-83 151.5,-83 154.5,-83 157.5,-86 157.5,-89 157.5,-89 157.5,-95 157.5,-95 157.5,-98 154.5,-101 151.5,-101"/>
<text text-anchor="start" x="115" y="-89.8" font-family="Helvetica,sans-Serif" font-size="9.00">App.jsx</text>
</a>
</g>
</g>
<!-- src/components/ProductList/ProductList.jsx -->
<g id="node3" class="node">
<title>src/components/ProductList/ProductList.jsx</title>
<g id="a_node3"><a xlink:href="src/components/ProductList/ProductList.jsx" xlink:title="ProductList.jsx">
<path fill="#ffff77" stroke="black" d="M252,-94C252,-94 188,-94 188,-94 185,-94 182,-91 182,-88 182,-88 182,-82 182,-82 182,-79 185,-76 188,-76 188,-76 252,-76 252,-76 255,-76 258,-79 258,-82 258,-82 258,-88 258,-88 258,-91 255,-94 252,-94"/>
<text text-anchor="start" x="190" y="-82.8" font-family="Helvetica,sans-Serif" font-size="9.00">ProductList.jsx</text>
</a>
</g>
</g>
<!-- src/App.jsx&#45;&gt;src/components/ProductList/ProductList.jsx -->
<g id="edge1" class="edge">
<title>src/App.jsx&#45;&gt;src/components/ProductList/ProductList.jsx</title>
<path fill="none" stroke="#000000" stroke-width="2" stroke-opacity="0.200000" d="M157.75,-89.9C162.59,-89.51 167.77,-89.1 172.99,-88.68"/>
<polygon fill="#000000" fill-opacity="0.200000" stroke="#000000" stroke-width="2" stroke-opacity="0.200000" points="172.94,-90.79 178.75,-88.22 172.6,-86.61 172.94,-90.79"/>
</g>
<!-- src/components/SearchBar.jsx -->
<g id="node4" class="node">
<title>src/components/SearchBar.jsx</title>
<g id="a_node4"><a xlink:href="src/components/SearchBar.jsx" xlink:title="SearchBar.jsx">
<path fill="#ffff77" stroke="black" d="M251,-60C251,-60 189,-60 189,-60 186,-60 183,-57 183,-54 183,-54 183,-48 183,-48 183,-45 186,-42 189,-42 189,-42 251,-42 251,-42 254,-42 257,-45 257,-48 257,-48 257,-54 257,-54 257,-57 254,-60 251,-60"/>
<text text-anchor="start" x="191" y="-48.8" font-family="Helvetica,sans-Serif" font-size="9.00">SearchBar.jsx</text>
</a>
</g>
</g>
<!-- src/App.jsx&#45;&gt;src/components/SearchBar.jsx -->
<g id="edge2" class="edge">
<title>src/App.jsx&#45;&gt;src/components/SearchBar.jsx</title>
<path fill="none" stroke="#000000" stroke-width="2" stroke-opacity="0.200000" d="M141.32,-82.54C147.85,-76.72 156.87,-69.54 166,-65 168.6,-63.71 171.33,-62.53 174.13,-61.44"/>
<polygon fill="#000000" fill-opacity="0.200000" stroke="#000000" stroke-width="2" stroke-opacity="0.200000" points="174.8,-63.43 179.78,-59.49 173.43,-59.47 174.8,-63.43"/>
</g>
<!-- src/hooks/useFetch.js -->
<g id="node5" class="node">
<title>src/hooks/useFetch.js</title>
<g id="a_node5"><a xlink:href="src/hooks/useFetch.js" xlink:title="useFetch.js">
<path fill="#ffffcc" stroke="black" d="M245.5,-210C245.5,-210 194.5,-210 194.5,-210 191.5,-210 188.5,-207 188.5,-204 188.5,-204 188.5,-198 188.5,-198 188.5,-195 191.5,-192 194.5,-192 194.5,-192 245.5,-192 245.5,-192 248.5,-192 251.5,-195 251.5,-198 251.5,-198 251.5,-204 251.5,-204 251.5,-207 248.5,-210 245.5,-210"/>
<text text-anchor="start" x="196.5" y="-198.8" font-family="Helvetica,sans-Serif" font-size="9.00">useFetch.js</text>
</a>
</g>
</g>
<!-- src/App.jsx&#45;&gt;src/hooks/useFetch.js -->
<g id="edge3" class="edge">
<title>src/App.jsx&#45;&gt;src/hooks/useFetch.js</title>
<path fill="none" stroke="#000000" stroke-width="2" stroke-opacity="0.200000" d="M146.7,-101.34C151.05,-104.77 155.33,-109.05 158,-114 165.64,-128.17 155.59,-173.72 166,-186 169.65,-190.31 174.44,-193.43 179.64,-195.68"/>
<polygon fill="#000000" fill-opacity="0.200000" stroke="#000000" stroke-width="2" stroke-opacity="0.200000" points="178.84,-197.62 185.2,-197.57 180.19,-193.65 178.84,-197.62"/>
</g>
<!-- src/hooks/useSearch.js -->
<g id="node6" class="node">
<title>src/hooks/useSearch.js</title>
<g id="a_node6"><a xlink:href="src/hooks/useSearch.js" xlink:title="useSearch.js">
<path fill="#ffffcc" stroke="black" d="M249,-180C249,-180 191,-180 191,-180 188,-180 185,-177 185,-174 185,-174 185,-168 185,-168 185,-165 188,-162 191,-162 191,-162 249,-162 249,-162 252,-162 255,-165 255,-168 255,-168 255,-174 255,-174 255,-177 252,-180 249,-180"/>
<text text-anchor="start" x="193" y="-168.8" font-family="Helvetica,sans-Serif" font-size="9.00">useSearch.js</text>
</a>
</g>
</g>
<!-- src/App.jsx&#45;&gt;src/hooks/useSearch.js -->
<g id="edge4" class="edge">
<title>src/App.jsx&#45;&gt;src/hooks/useSearch.js</title>
<path fill="none" stroke="#000000" stroke-width="2" stroke-opacity="0.200000" d="M143.7,-101.49C148.32,-105.24 153.53,-109.68 158,-114 161.85,-117.72 162.23,-119.2 166,-123 177.36,-134.46 190.85,-146.66 201.38,-155.89"/>
<polygon fill="#000000" fill-opacity="0.200000" stroke="#000000" stroke-width="2" stroke-opacity="0.200000" points="199.94,-157.43 205.84,-159.78 202.69,-154.26 199.94,-157.43"/>
</g>
<!-- src/components/ProductList/ListItem.jsx -->
<g id="node7" class="node">
<title>src/components/ProductList/ListItem.jsx</title>
<g id="a_node7"><a xlink:href="src/components/ProductList/ListItem.jsx" xlink:title="ListItem.jsx">
<path fill="#ffff77" stroke="black" d="M327,-94C327,-94 277,-94 277,-94 274,-94 271,-91 271,-88 271,-88 271,-82 271,-82 271,-79 274,-76 277,-76 277,-76 327,-76 327,-76 330,-76 333,-79 333,-82 333,-82 333,-88 333,-88 333,-91 330,-94 327,-94"/>
<text text-anchor="start" x="279" y="-82.8" font-family="Helvetica,sans-Serif" font-size="9.00">ListItem.jsx</text>
</a>
</g>
</g>
<!-- src/components/ProductList/ProductList.jsx&#45;&gt;src/components/ProductList/ListItem.jsx -->
<g id="edge5" class="edge">
<title>src/components/ProductList/ProductList.jsx&#45;&gt;src/components/ProductList/ListItem.jsx</title>
<path fill="none" stroke="#000000" stroke-width="2" stroke-opacity="0.200000" d="M258.19,-85C259.52,-85 260.85,-85 262.17,-85"/>
<polygon fill="#000000" fill-opacity="0.200000" stroke="#000000" stroke-width="2" stroke-opacity="0.200000" points="261.83,-87.1 267.83,-85 261.83,-82.9 261.83,-87.1"/>
</g>
<!-- src/index.css -->
<g id="node8" class="node">
<title>src/index.css</title>
<g id="a_node8"><a xlink:href="src/index.css" xlink:title="index.css">
<path fill="#ffffcc" stroke="black" d="M152,-138C152,-138 109,-138 109,-138 106,-138 103,-135 103,-132 103,-132 103,-126 103,-126 103,-123 106,-120 109,-120 109,-120 152,-120 152,-120 155,-120 158,-123 158,-126 158,-126 158,-132 158,-132 158,-135 155,-138 152,-138"/>
<text text-anchor="start" x="111" y="-126.8" font-family="Helvetica,sans-Serif" font-size="9.00">index.css</text>
</a>
</g>
</g>
<!-- src/main.jsx -->
<g id="node9" class="node">
<title>src/main.jsx</title>
<g id="a_node9"><a xlink:href="src/main.jsx" xlink:title="main.jsx">
<path fill="#ffff77" stroke="black" d="M76.5,-138C76.5,-138 34.5,-138 34.5,-138 31.5,-138 28.5,-135 28.5,-132 28.5,-132 28.5,-126 28.5,-126 28.5,-123 31.5,-120 34.5,-120 34.5,-120 76.5,-120 76.5,-120 79.5,-120 82.5,-123 82.5,-126 82.5,-126 82.5,-132 82.5,-132 82.5,-135 79.5,-138 76.5,-138"/>
<text text-anchor="start" x="38.5" y="-126.8" font-family="Helvetica,sans-Serif" font-size="9.00">main.jsx</text>
</a>
</g>
</g>
<!-- src/main.jsx&#45;&gt;src/App.jsx -->
<g id="edge6" class="edge">
<title>src/main.jsx&#45;&gt;src/App.jsx</title>
<path fill="none" stroke="#000000" stroke-width="2" stroke-opacity="0.200000" d="M82.95,-120.33C87.05,-118.72 91.19,-116.93 95,-115 99.94,-112.5 105.02,-109.43 109.72,-106.35"/>
<polygon fill="#000000" fill-opacity="0.200000" stroke="#000000" stroke-width="2" stroke-opacity="0.200000" points="110.89,-108.1 114.66,-102.98 108.52,-104.63 110.89,-108.1"/>
</g>
<!-- src/main.jsx&#45;&gt;src/index.css -->
<g id="edge7" class="edge">
<title>src/main.jsx&#45;&gt;src/index.css</title>
<path fill="none" stroke="#000000" stroke-width="2" stroke-opacity="0.200000" d="M82.85,-129C86.53,-129 90.35,-129 94.16,-129"/>
<polygon fill="#000000" fill-opacity="0.200000" stroke="#000000" stroke-width="2" stroke-opacity="0.200000" points="93.91,-131.1 99.91,-129 93.91,-126.9 93.91,-131.1"/>
</g>
<!-- src/setupTests.js -->
<g id="node10" class="node">
<title>src/setupTests.js</title>
<g id="a_node10"><a xlink:href="src/setupTests.js" xlink:title="setupTests.js">
<path fill="#ccffcc" stroke="black" d="M84,-52C84,-52 27,-52 27,-52 24,-52 21,-49 21,-46 21,-46 21,-40 21,-40 21,-37 24,-34 27,-34 27,-34 84,-34 84,-34 87,-34 90,-37 90,-40 90,-40 90,-46 90,-46 90,-49 87,-52 84,-52"/>
<text text-anchor="start" x="29" y="-40.8" font-family="Helvetica,sans-Serif" font-size="9.00">setupTests.js</text>
</a>
</g>
</g>
<!-- src/tests/App.test.jsx -->
<g id="node11" class="node">
<title>src/tests/App.test.jsx</title>
<g id="a_node11"><a xlink:href="src/tests/App.test.jsx" xlink:title="App.test.jsx">
<path fill="#ffff77" stroke="black" d="M81,-86C81,-86 30,-86 30,-86 27,-86 24,-83 24,-80 24,-80 24,-74 24,-74 24,-71 27,-68 30,-68 30,-68 81,-68 81,-68 84,-68 87,-71 87,-74 87,-74 87,-80 87,-80 87,-83 84,-86 81,-86"/>
<text text-anchor="start" x="32" y="-74.8" font-family="Helvetica,sans-Serif" font-size="9.00">App.test.jsx</text>
</a>
</g>
</g>
<!-- src/tests/App.test.jsx&#45;&gt;db.json -->
<g id="edge8" class="edge">
<title>src/tests/App.test.jsx&#45;&gt;db.json</title>
<path fill="none" stroke="#000000" stroke-width="2" stroke-opacity="0.200000" d="M87.4,-70.04C90.25,-68.43 92.86,-66.44 95,-64 105.6,-51.88 95.51,-41.16 103.05,-25.62"/>
<polygon fill="#000000" fill-opacity="0.200000" stroke="#000000" stroke-width="2" stroke-opacity="0.200000" points="104.76,-26.84 106.25,-20.66 101.23,-24.57 104.76,-26.84"/>
</g>
<!-- src/tests/App.test.jsx&#45;&gt;src/App.jsx -->
<g id="edge9" class="edge">
<title>src/tests/App.test.jsx&#45;&gt;src/App.jsx</title>
<path fill="none" stroke="#000000" stroke-width="2" stroke-opacity="0.200000" d="M87.46,-83.36C89.85,-83.85 92.28,-84.35 94.7,-84.85"/>
<polygon fill="#000000" fill-opacity="0.200000" stroke="#000000" stroke-width="2" stroke-opacity="0.200000" points="94.07,-86.86 100.37,-86.01 94.91,-82.75 94.07,-86.86"/>
</g>
</g>
</svg>
